<svg width="104" height="104" viewBox="0 0 104 104" fill="none" xmlns="http://www.w3.org/2000/svg">
<path fill-rule="evenodd" clip-rule="evenodd" d="M104 0L0 104V67.6739L67.6739 0H104Z" fill="#FFD116"/>
<path d="M102 2L104 0V4H100L102 2Z" fill="#E67E22"/>
<path d="M2 102L4 100V104H0L2 102Z" fill="#E67E22"/>
<path d="M17.8531 72.648L19.8047 70.6963L20.7466 71.6382L17.607 74.7778L11.6843 68.855L12.8722 67.6671L17.8531 72.648ZM24.48 68.0236C23.9256 68.578 23.2864 68.957 22.5623 69.1606C21.8382 69.3643 21.1113 69.3728 20.3816 69.1861C19.6462 68.9938 18.9872 68.6063 18.4045 68.0236C17.8275 67.4466 17.4457 66.7932 17.259 66.0635C17.0667 65.3281 17.0723 64.5984 17.276 63.8743C17.4796 63.1502 17.8586 62.511 18.413 61.9566C18.973 61.3966 19.6122 61.0176 20.3307 60.8196C21.0547 60.616 21.7817 60.6131 22.5114 60.8111C23.2411 60.9978 23.8945 61.3796 24.4715 61.9566C25.0541 62.5393 25.4416 63.1983 25.634 63.9337C25.8263 64.6578 25.8206 65.3819 25.617 66.1059C25.4134 66.83 25.0343 67.4692 24.48 68.0236ZM23.4193 66.963C23.7757 66.6066 24.0105 66.2134 24.1236 65.7835C24.2311 65.3479 24.2113 64.9039 24.0642 64.4513C23.9171 63.9988 23.6456 63.5745 23.2496 63.1785C22.8536 62.7825 22.4322 62.5138 21.9853 62.3724C21.5328 62.2253 21.0915 62.2084 20.6616 62.3215C20.2317 62.4346 19.8385 62.6694 19.4821 63.0258C19.1258 63.3822 18.8882 63.7781 18.7694 64.2137C18.6562 64.6436 18.6732 65.0849 18.8203 65.5374C18.9617 65.9843 19.2304 66.4058 19.6264 66.8017C20.0224 67.1977 20.4466 67.4692 20.8992 67.6163C21.3517 67.7634 21.7958 67.7832 22.2314 67.6757C22.6669 67.5569 23.0629 67.3193 23.4193 66.963ZM31.558 60.8268L27.9433 59.8255L27.3833 60.3855L29.6913 62.6935L28.5033 63.8815L22.5806 57.9587L24.8037 55.7356C25.2619 55.2774 25.7343 54.9691 26.2208 54.8107C26.7016 54.6467 27.1598 54.624 27.5954 54.7428C28.031 54.8503 28.4185 55.0737 28.7579 55.4132C29.1482 55.8035 29.3886 56.2702 29.4791 56.8132C29.564 57.3506 29.4424 57.9022 29.1143 58.4679L32.9326 59.4522L31.558 60.8268ZM26.4923 59.4946L27.4851 58.5018C27.8075 58.1794 27.9716 57.8626 27.9772 57.5515C27.9772 57.2347 27.8386 56.9377 27.5615 56.6605C27.2899 56.389 27.0014 56.2589 26.696 56.2702C26.3848 56.2758 26.068 56.4399 25.7456 56.7623L24.7528 57.7551L26.4923 59.4946ZM30.333 52.1241L31.8179 53.609L33.8119 51.6149L34.7538 52.5568L32.7597 54.5508L34.3295 56.1206L36.5781 53.872L37.5454 54.8393L34.1089 58.2759L28.1777 52.3447L31.6142 48.9081L32.5816 49.8755L30.333 52.1241ZM39.3293 41.2101L45.252 47.1328L44.0641 48.3207L40.2117 44.4684L42.4773 49.9075L41.5779 50.8069L36.1303 48.5498L39.9826 52.4021L38.7947 53.5901L32.872 47.6674L34.2211 46.3182L40.5087 48.8383L37.9886 42.5507L39.3293 41.2101ZM44.053 36.4863L49.9757 42.4091L48.7878 43.597L42.8651 37.6743L44.053 36.4863ZM51.5482 32.6568C51.865 32.9735 52.0856 33.3469 52.2101 33.7768C52.3402 34.2011 52.3289 34.6593 52.1761 35.1514C52.0291 35.6379 51.7123 36.1244 51.2258 36.6109L50.233 37.6037L52.5071 39.8777L51.3191 41.0657L45.3964 35.1429L47.5771 32.9622C48.0353 32.504 48.5048 32.1929 48.9857 32.0289C49.4665 31.8648 49.9247 31.8422 50.3603 31.961C50.8015 32.0741 51.1975 32.306 51.5482 32.6568ZM50.216 35.703C50.5441 35.3749 50.7138 35.0581 50.7251 34.7526C50.7308 34.4415 50.5979 34.1502 50.3263 33.8786C49.7493 33.3016 49.1384 33.3356 48.4935 33.9805L47.5517 34.9223L49.2742 36.6448L50.216 35.703ZM58.7556 33.748C58.3427 34.1609 57.8986 34.4636 57.4234 34.6559C56.9539 34.8426 56.49 34.8992 56.0318 34.8256C55.5736 34.7521 55.1607 34.5371 54.793 34.1807L56.0658 32.9079C56.326 33.1342 56.6032 33.2417 56.8973 33.2304C57.1971 33.2134 57.4828 33.0692 57.7543 32.7976C58.0315 32.5204 58.1843 32.2376 58.2125 31.9491C58.2352 31.6549 58.139 31.4004 57.924 31.1854C57.7487 31.0101 57.5507 30.9196 57.3301 30.9139C57.1095 30.9082 56.886 30.9563 56.6597 31.0581C56.4335 31.1487 56.1393 31.2957 55.7773 31.4994C55.2795 31.7709 54.8552 31.9746 54.5045 32.1103C54.1538 32.2348 53.7804 32.2744 53.3844 32.2291C52.9884 32.1725 52.6038 31.9576 52.2304 31.5842C51.8797 31.2335 51.6619 30.8404 51.5771 30.4048C51.4922 29.9692 51.5403 29.5251 51.7213 29.0726C51.8967 28.6144 52.188 28.1816 52.5953 27.7743C53.2062 27.1634 53.8511 26.8183 54.5299 26.7391C55.2088 26.6486 55.8338 26.8494 56.4052 27.3416L55.0984 28.6483C54.8835 28.456 54.6289 28.3768 54.3348 28.4107C54.0406 28.4334 53.7606 28.5776 53.4947 28.8435C53.2628 29.0754 53.1355 29.3215 53.1129 29.5817C53.0959 29.8363 53.2006 30.0767 53.4268 30.303C53.5852 30.4614 53.7691 30.5434 53.9784 30.549C54.1877 30.5434 54.4027 30.4981 54.6233 30.4133C54.8439 30.3171 55.138 30.17 55.5057 29.972C56.0035 29.7005 56.4306 29.4997 56.787 29.3696C57.1434 29.2395 57.5224 29.1999 57.924 29.2508C58.3257 29.3017 58.7103 29.511 59.078 29.8787C59.3948 30.1955 59.607 30.5717 59.7144 31.0072C59.8219 31.4428 59.7993 31.901 59.6466 32.3819C59.4882 32.857 59.1912 33.3124 58.7556 33.748ZM57.2399 23.2994L60.9056 26.9651C61.3072 27.3667 61.7202 27.5703 62.1444 27.576C62.563 27.576 62.9618 27.3865 63.3408 27.0075C63.7255 26.6228 63.9178 26.2212 63.9178 25.8026C63.9122 25.3783 63.7085 24.9654 63.3069 24.5637L59.6413 20.8981L60.8377 19.7017L64.4948 23.3588C64.9983 23.8623 65.3151 24.3997 65.4452 24.971C65.5753 25.531 65.5442 26.0826 65.3519 26.6256C65.1652 27.163 64.8484 27.6552 64.4015 28.1021C63.9603 28.5433 63.4709 28.8573 62.9335 29.044C62.4018 29.225 61.8587 29.2476 61.3044 29.1118C60.7443 28.9704 60.2126 28.648 59.7091 28.1445L56.052 24.4874L57.2399 23.2994ZM68.6125 11.9269L74.5352 17.8496L73.3472 19.0376L69.4949 15.1852L71.7605 20.6243L70.8611 21.5237L65.4135 19.2667L69.2658 23.119L68.0779 24.3069L62.1552 18.3842L63.5043 17.035L69.7919 19.5552L67.2718 13.2676L68.6125 11.9269Z" fill="white"/>
</svg>
