<svg width="24" height="24" viewBox="0 0 24 24" fill="none" xmlns="http://www.w3.org/2000/svg">
<g id="Icon">
<g id="Group 247">
<path id="Vector" d="M23.8004 21.3424C23.8004 21.9941 23.5415 22.6192 23.0807 23.0801C22.6199 23.5409 21.9948 23.7999 21.3431 23.8H3.45724C2.80551 23.7999 2.1805 23.5409 1.71969 23.0801C1.25888 22.6192 1 21.9941 1 21.3424L1 3.45724C1.00028 2.80563 1.25926 2.18078 1.72002 1.72002C2.18078 1.25926 2.80563 1.00028 3.45724 1L21.3431 1C21.9948 1.00019 22.6197 1.25914 23.0804 1.71992C23.5412 2.1807 23.8002 2.8056 23.8004 3.45724V21.3424Z" fill="#EFC22D"/>
<path id="Vector_2" d="M20.253 6.05388C19.9176 5.76739 19.4821 5.6258 19.0423 5.66025C18.6025 5.6947 18.1944 5.90236 17.9076 6.23759L10.745 14.6144L6.89168 11.3976C6.73914 11.2664 6.56203 11.1668 6.37066 11.1046C6.17928 11.0425 5.97746 11.019 5.77692 11.0355C5.57638 11.052 5.38112 11.1082 5.2025 11.2009C5.02387 11.2935 4.86545 11.4207 4.73643 11.5751C4.60741 11.7296 4.51037 11.9081 4.45095 12.1003C4.39153 12.2926 4.37092 12.4947 4.39031 12.695C4.4097 12.8953 4.46871 13.0897 4.5639 13.267C4.6591 13.4443 4.78859 13.6008 4.94483 13.7276L10.1074 18.0381C10.2666 18.1708 10.4514 18.2693 10.6503 18.3275C10.8492 18.3857 11.058 18.4022 11.2636 18.3762C11.4817 18.3593 11.6943 18.2997 11.8892 18.2006C12.0842 18.1014 12.2577 17.9649 12.3998 17.7986L20.4357 8.39854C20.7218 8.06293 20.8632 7.62749 20.8287 7.18778C20.7942 6.74808 20.5866 6.34002 20.2516 6.05316" fill="#F4F4F4"/>
</g>
</g>
</svg>
